<svg xmlns="http://www.w3.org/2000/svg" viewBox="0 0 18 18">
<path d="M12.5559 11.548L12.1009 12.028C12.1009 12.028 11.0179 13.167 8.06286 10.056C5.10786 6.94505 6.19086 5.80605 6.19086 5.80605L6.47786 5.50305C7.18386 4.75905 7.25086 3.56505 6.63386 2.69305L5.37386 0.910049C4.60986 -0.169951 3.13486 -0.311952 2.25986 0.609048L0.690856 2.26005C0.257856 2.71705 -0.032144 3.30805 0.002856 3.96505C0.092856 5.64505 0.810856 9.25805 4.81486 13.475C9.06186 17.945 13.0469 18.123 14.6759 17.962C15.1919 17.912 15.6399 17.633 16.0009 17.253L17.4209 15.757C18.3809 14.747 18.1109 13.017 16.8829 12.311L14.9729 11.211C14.1669 10.748 13.1859 10.884 12.5559 11.547" fill="currentColor"/>
</svg>
