<svg xmlns="http://www.w3.org/2000/svg" viewBox="0 0 46 31">
<path d="M32.5254 4.00098C32.8965 4.00098 33.2285 4.1377 33.5215 4.41113C33.8145 4.68457 33.9609 5.0166 33.9609 5.40723V7.63379H36.3633C37.1641 7.63379 37.8916 7.87305 38.5459 8.35156C39.2002 8.83008 39.6641 9.4502 39.9375 10.2119L41.3438 14.5186L44.3906 15.1338C44.7227 15.2119 44.9912 15.3779 45.1963 15.6318C45.4014 15.8857 45.4941 16.1787 45.4746 16.5107V21.0518C45.4746 21.4424 45.3379 21.7793 45.0645 22.0625C44.791 22.3457 44.4492 22.4873 44.0391 22.4873H42.4863C42.4863 23.6006 42.0908 24.5576 41.2998 25.3584C40.5088 26.1592 39.5469 26.5596 38.4141 26.5596C37.3008 26.5596 36.3438 26.1641 35.543 25.373C34.7422 24.582 34.3418 23.6201 34.3418 22.4873H23.4141C23.4141 23.6006 23.0137 24.5576 22.2129 25.3584C21.4121 26.1592 20.4551 26.5596 19.3418 26.5596C18.2285 26.5596 17.2715 26.1641 16.4707 25.373C15.6699 24.582 15.2695 23.6201 15.2695 22.4873H13.6875C13.3164 22.4873 12.9893 22.3506 12.7061 22.0771C12.4229 21.8037 12.2813 21.4619 12.2813 21.0518V5.40723C12.2813 5.03613 12.418 4.70898 12.6914 4.42578C12.9648 4.14258 13.2969 4.00098 13.6875 4.00098H32.5254ZM19.3418 20.5537C18.7949 20.5537 18.3359 20.7441 17.9648 21.125C17.5938 21.5059 17.4082 21.96 17.4082 22.4873C17.4082 23.0342 17.5986 23.4932 17.9795 23.8643C18.3604 24.2354 18.8145 24.4209 19.3418 24.4209C19.8887 24.4209 20.3477 24.2354 20.7188 23.8643C21.0898 23.4932 21.2754 23.0342 21.2754 22.4873C21.2754 21.9404 21.0898 21.4814 20.7188 21.1104C20.3477 20.7393 19.8887 20.5537 19.3418 20.5537ZM38.4434 20.5537C37.8965 20.5537 37.4375 20.7441 37.0664 21.125C36.6953 21.5059 36.5098 21.96 36.5098 22.4873C36.5098 23.0342 36.7051 23.4932 37.0957 23.8643C37.4863 24.2354 37.9356 24.4209 38.4434 24.4209C38.9707 24.4209 39.4199 24.2354 39.791 23.8643C40.1621 23.4932 40.3672 23.0342 40.4063 22.4873C40.4063 21.9404 40.2109 21.4814 39.8203 21.1104C39.4297 20.7393 38.9707 20.5537 38.4434 20.5537ZM8.82422 16.833C9.15625 16.833 9.42969 16.9453 9.64453 17.1699C9.85938 17.3945 9.9668 17.6631 9.9668 17.9756C9.9668 18.2881 9.85449 18.5566 9.62988 18.7812C9.40527 19.0059 9.13672 19.1182 8.82422 19.1182H5.2207C4.9082 19.1182 4.63965 19.0059 4.41504 18.7812C4.19043 18.5566 4.07813 18.2881 4.07813 17.9756C4.07813 17.6826 4.19043 17.4189 4.41504 17.1846C4.63965 16.9502 4.9082 16.833 5.2207 16.833H8.82422ZM8.82422 12.1162C9.15625 12.1162 9.43457 12.2188 9.65918 12.4238C9.88379 12.6289 9.98633 12.8975 9.9668 13.2295C9.9668 13.542 9.85449 13.8105 9.62988 14.0352C9.40527 14.2598 9.13672 14.3721 8.82422 14.3721H3.4043C3.11133 14.3721 2.85254 14.2598 2.62793 14.0352C2.40332 13.8105 2.29102 13.542 2.29102 13.2295C2.29102 12.9365 2.40332 12.6777 2.62793 12.4531C2.85254 12.2285 3.11133 12.1162 3.4043 12.1162H8.82422ZM36.3633 9.77246H33.9609V14.1377H38.9707L37.8867 10.8857C37.7695 10.5537 37.5693 10.2852 37.2861 10.0801C37.0029 9.875 36.6953 9.77246 36.3633 9.77246ZM8.82422 7.31152C9.15625 7.31152 9.42969 7.42383 9.64453 7.64844C9.85938 7.87305 9.9668 8.1416 9.9668 8.4541C9.9668 8.7666 9.85449 9.03516 9.62988 9.25977C9.40527 9.48438 9.13672 9.59668 8.82422 9.59668H1.61719C1.30469 9.59668 1.03613 9.48438 0.811523 9.25977C0.586914 9.03516 0.474609 8.7666 0.474609 8.4541C0.474609 8.1416 0.586914 7.87305 0.811523 7.64844C1.03613 7.42383 1.30469 7.31152 1.61719 7.31152H8.82422Z" fill="currentColor"/>
</svg>
