<svg xmlns="http://www.w3.org/2000/svg" viewBox="0 0 24 24">
<path d="M12.1729 6.41016C15.3721 6.41016 18.0127 9.05078 18.0127 12.25C18.0127 15.5 15.3721 18.0898 12.1729 18.0898C8.92285 18.0898 6.33301 15.5 6.33301 12.25C6.33301 9.05078 8.92285 6.41016 12.1729 6.41016ZM12.1729 16.0586C14.2549 16.0586 15.9307 14.3828 15.9307 12.25C15.9307 10.168 14.2549 8.49219 12.1729 8.49219C10.04 8.49219 8.36426 10.168 8.36426 12.25C8.36426 14.3828 10.0908 16.0586 12.1729 16.0586ZM19.5869 6.20703C19.5869 6.96875 18.9775 7.57812 18.2158 7.57812C17.4541 7.57812 16.8447 6.96875 16.8447 6.20703C16.8447 5.44531 17.4541 4.83594 18.2158 4.83594C18.9775 4.83594 19.5869 5.44531 19.5869 6.20703ZM23.4463 7.57812C23.5479 9.45703 23.5479 15.0938 23.4463 16.9727C23.3447 18.8008 22.9385 20.375 21.6182 21.7461C20.2979 23.0664 18.6729 23.4727 16.8447 23.5742C14.9658 23.6758 9.3291 23.6758 7.4502 23.5742C5.62207 23.4727 4.04785 23.0664 2.67676 21.7461C1.35645 20.375 0.950195 18.8008 0.848633 16.9727C0.74707 15.0938 0.74707 9.45703 0.848633 7.57812C0.950195 5.75 1.35645 4.125 2.67676 2.80469C4.04785 1.48438 5.62207 1.07812 7.4502 0.976562C9.3291 0.875 14.9658 0.875 16.8447 0.976562C18.6729 1.07812 20.2979 1.48438 21.6182 2.80469C22.9385 4.125 23.3447 5.75 23.4463 7.57812ZM21.0088 18.9531C21.6182 17.4805 21.4658 13.9258 21.4658 12.25C21.4658 10.625 21.6182 7.07031 21.0088 5.54688C20.6025 4.58203 19.8408 3.76953 18.876 3.41406C17.3525 2.80469 13.7979 2.95703 12.1729 2.95703C10.4971 2.95703 6.94238 2.80469 5.46973 3.41406C4.4541 3.82031 3.69238 4.58203 3.28613 5.54688C2.67676 7.07031 2.8291 10.625 2.8291 12.25C2.8291 13.9258 2.67676 17.4805 3.28613 18.9531C3.69238 19.9688 4.4541 20.7305 5.46973 21.1367C6.94238 21.7461 10.4971 21.5938 12.1729 21.5938C13.7979 21.5938 17.3525 21.7461 18.876 21.1367C19.8408 20.7305 20.6533 19.9688 21.0088 18.9531Z" fill="currentColor"/>
</svg>
