<svg xmlns="http://www.w3.org/2000/svg" viewBox="0 0 44 44">
<circle cx="22" cy="22" r="22" fill="currentColor"/>
<path d="M18 17C18 15.9391 18.4214 14.9217 19.1716 14.1716C19.9217 13.4214 20.9391 13 22 13C23.0609 13 24.0783 13.4214 24.8284 14.1716C25.5786 14.9217 26 15.9391 26 17V18.6C26 19.6609 25.5786 20.6783 24.8284 21.4284C24.0783 22.1786 23.0609 22.6 22 22.6C20.9391 22.6 19.9217 22.1786 19.1716 21.4284C18.4214 20.6783 18 19.6609 18 18.6V17ZM14 26.344C16.4308 24.936 19.1909 24.1963 22 24.2C24.912 24.2 27.648 24.976 30 26.344V29H14V26.344Z" fill="white"/>
</svg>
