<svg xmlns="http://www.w3.org/2000/svg" viewBox="0 0 31 31">
<path d="M28.1621 10.124C28.9629 10.124 29.6318 10.3926 30.1689 10.9297C30.7061 11.4668 30.9746 12.1357 30.9746 12.9365V20.4365C30.9746 21.1787 30.7061 21.833 30.1689 22.3994C29.6318 22.9658 28.9629 23.249 28.1621 23.249V26.999L24.4121 23.249H15.0371C14.2363 23.249 13.5674 22.9658 13.0303 22.3994C12.4932 21.833 12.2246 21.1787 12.2246 20.4365V12.9365C12.2246 12.1357 12.4932 11.4668 13.0303 10.9297C13.5674 10.3926 14.2363 10.124 15.0371 10.124H28.1621ZM16.9121 3.56152C17.7129 3.56152 18.3818 3.83008 18.9189 4.36719C19.4561 4.9043 19.7246 5.57324 19.7246 6.37402V8.24902H15.0371C13.7285 8.24902 12.6201 8.70312 11.7119 9.61133C10.8037 10.5195 10.3496 11.6279 10.3496 12.9365V16.6865H7.53711L3.78711 20.4365V16.6865C2.98633 16.6865 2.31738 16.4033 1.78027 15.8369C1.24316 15.2705 0.974609 14.6162 0.974609 13.874V6.37402C0.974609 5.57324 1.24316 4.9043 1.78027 4.36719C2.31738 3.83008 2.98633 3.56152 3.78711 3.56152H16.9121Z" fill="currentColor"/>
</svg>
