<svg xmlns="http://www.w3.org/2000/svg" viewBox="0 0 26 26">
<path d="M25.7745 13.25C25.7745 20.207 20.1378 25.8438 13.1807 25.8438C11.8604 25.8438 10.5909 25.6914 9.42294 25.2852C9.93075 24.4727 10.6925 23.1016 10.9972 21.9844C11.1495 21.4258 11.7589 18.9883 11.7589 18.9883C12.1651 19.8008 13.3839 20.4609 14.6534 20.4609C18.462 20.4609 21.2042 16.957 21.2042 12.6406C21.2042 8.47656 17.8018 5.32812 13.4347 5.32812C8.00106 5.32812 5.10653 8.98438 5.10653 12.9453C5.10653 14.8242 6.07137 17.1094 7.64559 17.8711C7.8995 17.9727 8.05184 17.9219 8.10262 17.668C8.10262 17.5156 8.35653 16.6523 8.45809 16.2461C8.45809 16.1445 8.45809 15.9922 8.35653 15.8906C7.84872 15.2812 7.44247 14.1133 7.44247 12.9961C7.44247 10.2539 9.5245 7.5625 13.13 7.5625C16.1768 7.5625 18.3604 9.64453 18.3604 12.6914C18.3604 16.0938 16.6339 18.4297 14.3995 18.4297C13.1807 18.4297 12.2667 17.4141 12.5206 16.1953C12.8761 14.6719 13.587 13.0469 13.587 11.9805C13.587 11.0156 13.0792 10.2031 12.0128 10.2031C10.7432 10.2031 9.72762 11.5234 9.72762 13.25C9.72762 14.3672 10.0831 15.1289 10.0831 15.1289C10.0831 15.1289 8.86434 20.4102 8.61044 21.375C8.35653 22.4922 8.45809 24.0156 8.55966 24.9805C3.88778 23.1523 0.587 18.6328 0.587 13.25C0.587 6.29297 6.22372 0.65625 13.1807 0.65625C20.1378 0.65625 25.7745 6.29297 25.7745 13.25Z" fill="currentColor"/>
</svg>
