<svg xmlns="http://www.w3.org/2000/svg" viewBox="0 0 31 31">
<path d="M9.08984 11.3545L11.8438 1.59863H14.8027V11.2373C14.8223 12.0186 14.5586 12.6973 14.0117 13.2734C13.4648 13.8496 12.791 14.1475 11.9902 14.167C11.209 14.1865 10.5352 13.9229 9.96875 13.376C9.40234 12.8291 9.10938 12.1553 9.08984 11.3545ZM20.0469 14.1084C20.8086 14.1084 21.4678 13.8398 22.0244 13.3027C22.5811 12.7656 22.8789 12.1162 22.918 11.3545L20.1641 1.59863H17.2051V11.2373C17.2051 12.0186 17.4834 12.6924 18.04 13.2588C18.5967 13.8252 19.2656 14.1084 20.0469 14.1084ZM6.6875 11.2373V10.915L9.32422 1.59863H7.27344C7.05859 1.59863 6.8584 1.64746 6.67285 1.74512C6.4873 1.84277 6.33594 1.98926 6.21875 2.18457L0.974609 11.5303C1.05273 12.292 1.37988 12.9219 1.95605 13.4199C2.53223 13.918 3.20117 14.1475 3.96289 14.1084C4.72461 14.0889 5.36914 13.7959 5.89648 13.2295C6.42383 12.6631 6.6875 11.999 6.6875 11.2373ZM24.1191 14.5771C23.6309 15.1826 23.0303 15.6562 22.3174 15.998C21.6045 16.3398 20.8477 16.5107 20.0469 16.5107C19.2656 16.5107 18.5186 16.3398 17.8057 15.998C17.0928 15.6562 16.4922 15.1826 16.0039 14.5771C15.4961 15.1826 14.8906 15.6562 14.1875 15.998C13.4844 16.3398 12.7324 16.5107 11.9316 16.5107C11.1504 16.5107 10.4033 16.3398 9.69043 15.998C8.97754 15.6562 8.37695 15.1826 7.88867 14.5771C7.38086 15.1826 6.77051 15.6514 6.05762 15.9834C5.34473 16.3154 4.59766 16.4814 3.81641 16.4814H3.66992V27.79C3.66992 27.9463 3.69922 28.0977 3.75781 28.2441C3.81641 28.3906 3.9043 28.5225 4.02148 28.6396C4.13867 28.7568 4.27051 28.8447 4.41699 28.9033C4.56348 28.9619 4.71484 28.9912 4.87109 28.9912H10.7598C10.916 28.9912 11.0674 28.9619 11.2139 28.9033C11.3604 28.8447 11.4922 28.7568 11.6094 28.6396C11.707 28.5225 11.7852 28.3906 11.8438 28.2441C11.9023 28.0977 11.9316 27.9463 11.9316 27.79V25.1533C11.9316 24.0986 12.2783 23.1709 12.9717 22.3701C13.665 21.5693 14.5391 21.1006 15.5938 20.9639C16.1602 20.9053 16.7168 20.9639 17.2637 21.1396C17.8105 21.3154 18.2891 21.5986 18.6992 21.9893C19.1289 22.3604 19.4609 22.8096 19.6953 23.3369C19.9297 23.8643 20.0469 24.4111 20.0469 24.9775V27.79C20.0469 27.9463 20.0762 28.0977 20.1348 28.2441C20.1934 28.3906 20.2812 28.5225 20.3984 28.6396C20.5156 28.7373 20.6475 28.8203 20.7939 28.8887C20.9404 28.957 21.0918 28.9912 21.248 28.9912H27.1367C27.293 28.9912 27.4443 28.957 27.5908 28.8887C27.7373 28.8203 27.8691 28.7373 27.9863 28.6396C28.084 28.5225 28.167 28.3906 28.2354 28.2441C28.3037 28.0977 28.3379 27.9463 28.3379 27.79V16.4814H28.1621C27.3809 16.4814 26.6338 16.3154 25.9209 15.9834C25.208 15.6514 24.6074 15.1826 24.1191 14.5771ZM25.7598 2.18457C25.6621 1.98926 25.5205 1.83789 25.335 1.73047C25.1494 1.62305 24.9492 1.56934 24.7344 1.56934H22.625L25.2617 10.8857V11.208C25.2617 11.9697 25.5254 12.6289 26.0527 13.1855C26.5801 13.7422 27.2246 14.04 27.9863 14.0791C28.748 14.1182 29.417 13.8887 29.9932 13.3906C30.5693 12.8926 30.8965 12.2627 30.9746 11.501L25.7598 2.18457Z" fill="currentColor"/>
</svg>
