<svg xmlns="http://www.w3.org/2000/svg" viewBox="0 0 31 31">
<path d="M29.9195 11.091L20.1636 10.8859L16.9703 1.68669C16.814 1.21793 16.482 0.978676 15.9742 0.96891C15.4664 0.959145 15.1343 1.1984 14.9781 1.68669L11.7554 10.8859L2.02888 11.091C1.52107 11.091 1.18903 11.3302 1.03278 11.8088C0.876535 12.2873 0.993722 12.6828 1.38435 12.9953L9.17732 18.884L6.33552 28.2004C6.17927 28.7472 6.32575 29.1427 6.77497 29.3869C7.22419 29.631 7.62458 29.6359 7.97614 29.4015L15.9742 23.8351L23.9722 29.4015C24.4605 29.7336 24.8951 29.714 25.2759 29.3429C25.6568 28.9718 25.7593 28.5617 25.5836 28.1125L22.7711 18.884L30.5347 12.9953C30.9644 12.6632 31.0865 12.2629 30.9009 11.7941C30.7154 11.3254 30.3883 11.091 29.9195 11.091Z" fill="currentColor"/>
</svg>
