<svg xmlns="http://www.w3.org/2000/svg" viewBox="0 0 27 22">
<path d="M23.4867 5.96875C23.4867 6.22266 23.4867 6.42578 23.4867 6.67969C23.4867 13.7383 18.1547 21.8125 8.35391 21.8125C5.30703 21.8125 2.51406 20.9492 0.178125 19.4258C0.584375 19.4766 0.990625 19.5273 1.44766 19.5273C3.93594 19.5273 6.22109 18.6641 8.04922 17.2422C5.71328 17.1914 3.73281 15.668 3.07266 13.5352C3.42813 13.5859 3.73281 13.6367 4.08828 13.6367C4.54531 13.6367 5.05313 13.5352 5.45938 13.4336C3.02188 12.9258 1.19375 10.793 1.19375 8.20312V8.15234C1.90469 8.55859 2.76797 8.76172 3.63125 8.8125C2.15859 7.84766 1.24453 6.22266 1.24453 4.39453C1.24453 3.37891 1.49844 2.46484 1.95547 1.70312C4.59609 4.90234 8.55703 7.03516 12.975 7.28906C12.8734 6.88281 12.8227 6.47656 12.8227 6.07031C12.8227 3.125 15.2094 0.738281 18.1547 0.738281C19.6781 0.738281 21.0492 1.34766 22.0648 2.41406C23.2328 2.16016 24.4008 1.70312 25.4164 1.09375C25.0102 2.36328 24.1977 3.37891 23.0805 4.03906C24.1469 3.9375 25.2133 3.63281 26.1273 3.22656C25.4164 4.29297 24.5023 5.20703 23.4867 5.96875Z" fill="curentColor"/>
</svg>
